<?xml version="1.0" encoding="UTF-8"?>
<svg version="1.1" xmlns="http://www.w3.org/2000/svg" width="238" height="224">
<path d="M0 0 C78.54 0 157.08 0 238 0 C238 73.92 238 147.84 238 224 C159.46 224 80.92 224 0 224 C0 150.08 0 76.16 0 0 Z " fill="#FEFEFE" transform="translate(0,0)"/>
<path d="M0 0 C3.39237718 1.66465801 6.62380379 3.57695324 9.875 5.5 C19.72279202 11.20131061 29.68789714 16.62640308 39.75 21.9375 C40.42818787 22.29553711 41.10637573 22.65357422 41.80511475 23.02246094 C42.46996887 23.3734082 43.134823 23.72435547 43.81982422 24.0859375 C44.47276459 24.43061066 45.12570496 24.77528381 45.7984314 25.13040161 C47.07292752 25.80318014 48.34752213 26.47577214 49.6222229 27.14816284 C55.10971026 30.04725568 60.56259608 33.00800816 66 36 C66 38.64 66 41.28 66 44 C19.8 44 -26.4 44 -74 44 C-74 41.36 -74 38.72 -74 36 C-73.15107178 35.55309814 -72.30214355 35.10619629 -71.42749023 34.64575195 C-50.24572751 23.48878944 -50.24572751 23.48878944 -29.3125 11.875 C-28.38695312 11.34994873 -27.46140625 10.82489746 -26.5078125 10.28393555 C-22.63029047 8.08050814 -18.76268408 5.8628821 -14.9140625 3.609375 C-13.75550956 2.94738921 -12.59668411 2.28587995 -11.4375 1.625 C-10.04337891 0.80902344 -10.04337891 0.80902344 -8.62109375 -0.0234375 C-5.11282385 -1.33054253 -3.59955451 -1.10689519 0 0 Z " fill="#6A5E8D" transform="translate(124,18)"/>
<path d="M0 0 C0.65830811 -0.00191345 1.31661621 -0.0038269 1.99487305 -0.00579834 C3.3868854 -0.0071595 4.77891047 -0.00346783 6.17089844 0.00488281 C8.30432589 0.015584 10.43691131 0.00498594 12.5703125 -0.0078125 C13.92187686 -0.00649089 15.2734407 -0.00392847 16.625 0 C18.47544922 0.00338379 18.47544922 0.00338379 20.36328125 0.00683594 C23.3125 0.265625 23.3125 0.265625 25.3125 2.265625 C24.9375 4.390625 24.9375 4.390625 24.3125 6.265625 C22.3325 6.265625 20.3525 6.265625 18.3125 6.265625 C18.3125 32.665625 18.3125 59.065625 18.3125 86.265625 C20.2925 86.265625 22.2725 86.265625 24.3125 86.265625 C24.69468767 87.92177157 25.02645102 89.59019524 25.3125 91.265625 C24.3125 92.265625 24.3125 92.265625 21.26147461 92.37915039 C19.91258729 92.37899134 18.56369386 92.37330112 17.21484375 92.36328125 C16.15155602 92.36115883 16.15155602 92.36115883 15.06678772 92.35899353 C12.79448288 92.35337943 10.52227525 92.34082463 8.25 92.328125 C6.71289204 92.32311181 5.17578255 92.31854859 3.63867188 92.31445312 C-0.13675642 92.30340542 -3.91211171 92.28613141 -7.6875 92.265625 C-8.06968767 90.60947843 -8.40145102 88.94105476 -8.6875 87.265625 C-8.1925 86.770625 -8.1925 86.770625 -7.6875 86.265625 C-5.7075 86.265625 -3.7275 86.265625 -1.6875 86.265625 C-1.6875 59.865625 -1.6875 33.465625 -1.6875 6.265625 C-3.6675 6.265625 -5.6475 6.265625 -7.6875 6.265625 C-8.3125 4.390625 -8.3125 4.390625 -8.6875 2.265625 C-5.85490425 -0.56697075 -3.9605534 0.00724239 0 0 Z " fill="#685B8C" transform="translate(111.6875,72.734375)"/>
<path d="M0 0 C0.65830811 -0.00191345 1.31661621 -0.0038269 1.99487305 -0.00579834 C3.3868854 -0.0071595 4.77891047 -0.00346783 6.17089844 0.00488281 C8.30432589 0.015584 10.43691131 0.00498594 12.5703125 -0.0078125 C13.92187686 -0.00649089 15.2734407 -0.00392847 16.625 0 C18.47544922 0.00338379 18.47544922 0.00338379 20.36328125 0.00683594 C23.3125 0.265625 23.3125 0.265625 25.3125 2.265625 C24.9375 4.390625 24.9375 4.390625 24.3125 6.265625 C22.3325 6.265625 20.3525 6.265625 18.3125 6.265625 C18.3125 32.665625 18.3125 59.065625 18.3125 86.265625 C20.2925 86.265625 22.2725 86.265625 24.3125 86.265625 C24.69468767 87.92177157 25.02645102 89.59019524 25.3125 91.265625 C24.3125 92.265625 24.3125 92.265625 21.26147461 92.37915039 C19.91258729 92.37899134 18.56369386 92.37330112 17.21484375 92.36328125 C16.15155602 92.36115883 16.15155602 92.36115883 15.06678772 92.35899353 C12.79448288 92.35337943 10.52227525 92.34082463 8.25 92.328125 C6.71289204 92.32311181 5.17578255 92.31854859 3.63867188 92.31445312 C-0.13675642 92.30340542 -3.91211171 92.28613141 -7.6875 92.265625 C-7.6875 90.285625 -7.6875 88.305625 -7.6875 86.265625 C-5.7075 86.265625 -3.7275 86.265625 -1.6875 86.265625 C-1.6875 59.865625 -1.6875 33.465625 -1.6875 6.265625 C-3.6675 6.265625 -5.6475 6.265625 -7.6875 6.265625 C-8.3125 4.390625 -8.3125 4.390625 -8.6875 2.265625 C-5.85490425 -0.56697075 -3.9605534 0.00724239 0 0 Z " fill="#685B8B" transform="translate(151.6875,72.734375)"/>
<path d="M0 0 C1.28825684 0.01047363 2.57651367 0.02094727 3.90380859 0.03173828 C4.93167984 0.03598312 4.93167984 0.03598312 5.98031616 0.04031372 C8.17113636 0.05151797 10.36154925 0.07662219 12.55224609 0.10205078 C14.03661519 0.1120803 15.5209907 0.1212062 17.00537109 0.12939453 C20.6461287 0.15145784 24.28664766 0.18598903 27.92724609 0.22705078 C27.92724609 2.20705078 27.92724609 4.18705078 27.92724609 6.22705078 C25.94724609 6.22705078 23.96724609 6.22705078 21.92724609 6.22705078 C21.92724609 32.62705078 21.92724609 59.02705078 21.92724609 86.22705078 C23.57724609 86.22705078 25.22724609 86.22705078 26.92724609 86.22705078 C27.98974609 88.10205078 27.98974609 88.10205078 28.92724609 90.22705078 C28.59724609 90.88705078 28.26724609 91.54705078 27.92724609 92.22705078 C17.36724609 92.22705078 6.80724609 92.22705078 -4.07275391 92.22705078 C-4.40275391 90.90705078 -4.73275391 89.58705078 -5.07275391 88.22705078 C-4.08275391 87.23705078 -4.08275391 87.23705078 -3.07275391 86.22705078 C-1.42275391 86.22705078 0.22724609 86.22705078 1.92724609 86.22705078 C1.92724609 59.82705078 1.92724609 33.42705078 1.92724609 6.22705078 C-0.05275391 6.22705078 -2.03275391 6.22705078 -4.07275391 6.22705078 C-4.69775391 4.35205078 -4.69775391 4.35205078 -5.07275391 2.22705078 C-3.07275391 0.22705078 -3.07275391 0.22705078 0 0 Z " fill="#685B8B" transform="translate(68.07275390625,72.77294921875)"/>
<path d="M0 0 C3.46799367 1.51243269 6.82605343 3.20272993 10.1875 4.9375 C11.15131592 5.42750488 12.11513184 5.91750977 13.1081543 6.42236328 C16.07788458 7.93729825 19.04022194 9.46572146 22 11 C22.90266602 11.46776855 23.80533203 11.93553711 24.73535156 12.41748047 C33.22307762 16.82926044 41.65284979 21.32716411 50 26 C50 26.33 50 26.66 50 27 C14.03 27 -21.94 27 -59 27 C-56.19974591 24.89980944 -53.94865424 23.34402319 -50.90917969 21.79516602 C-50.11445251 21.38786758 -49.31972534 20.98056915 -48.50091553 20.56092834 C-47.64983215 20.12961105 -46.79874878 19.69829376 -45.921875 19.25390625 C-45.03647034 18.80152084 -44.15106567 18.34913544 -43.23883057 17.88304138 C-40.41101326 16.439314 -37.58054014 15.00088045 -34.75 13.5625 C-32.86050399 12.59864655 -30.97117918 11.63445739 -29.08203125 10.66992188 C-20.13399279 6.10492813 -20.13399279 6.10492813 -16.26799011 4.15190125 C-14.74888534 3.38035525 -13.23448028 2.59948923 -11.72480774 1.80964661 C-7.16675762 -0.54942923 -4.9763905 -1.67945433 0 0 Z " fill="#FAFAFB" transform="translate(124,28)"/>
<path d="M0 0 C1.26060745 -0.00426498 2.5212149 -0.00852997 3.82002258 -0.01292419 C5.22999576 -0.01257463 6.63996891 -0.01211307 8.04994202 -0.0115509 C9.52465907 -0.01454078 10.99937535 -0.01794291 12.47409058 -0.02172852 C16.49057064 -0.03059017 20.50702943 -0.03290753 24.52351832 -0.0335443 C27.87111944 -0.03449161 31.21871556 -0.03816783 34.56631476 -0.0417164 C42.46125036 -0.04986918 50.35617456 -0.05229988 58.25111389 -0.05158997 C66.40756918 -0.05098894 74.56395838 -0.06154373 82.72039694 -0.07733363 C89.71232572 -0.09038912 96.70423284 -0.0957747 103.69617373 -0.09513456 C107.87691954 -0.09487898 112.05760666 -0.09776275 116.23834038 -0.10831261 C120.16909239 -0.1179602 124.0997292 -0.11809589 128.03048515 -0.11079597 C129.47611152 -0.10974595 130.92174494 -0.11213758 132.36735916 -0.11815643 C134.33497968 -0.1258203 136.30263907 -0.12005776 138.27026367 -0.11352539 C139.92477744 -0.11434254 139.92477744 -0.11434254 141.61271572 -0.1151762 C144.19862366 0.13371277 144.19862366 0.13371277 146.19862366 2.13371277 C145.66290937 5.66942705 145.66290937 5.66942705 144.19862366 7.13371277 C142.26464877 7.23253024 140.32701589 7.26003504 138.39051819 7.26069641 C137.12846558 7.26351624 135.86641296 7.26633606 134.56611633 7.26924133 C133.15455613 7.26729674 131.74299607 7.26524855 130.33143616 7.2631073 C128.85509701 7.26446129 127.37875821 7.26624121 125.90242004 7.26841736 C121.88187081 7.27299196 117.86134713 7.27120203 113.84079742 7.26803827 C109.64252654 7.26551481 105.44425791 7.26785217 101.24598694 7.26942444 C94.19438787 7.27124617 87.14279926 7.26883972 80.09120178 7.26408386 C71.92679316 7.25864123 63.7624095 7.26040389 55.59800148 7.26591027 C48.60099384 7.27044129 41.60399373 7.271092 34.60698509 7.2684716 C30.42237819 7.26690876 26.23778304 7.26671524 22.05317688 7.27000809 C18.1199908 7.27288664 14.18683705 7.27091141 10.25365448 7.26511383 C8.80599776 7.26378615 7.35833834 7.26418049 5.91068268 7.2663765 C3.94269912 7.26908763 1.97470964 7.2650935 0.00672913 7.26069641 C-1.09720184 7.26031939 -2.20113281 7.25994236 -3.33851624 7.25955391 C-5.80137634 7.13371277 -5.80137634 7.13371277 -6.80137634 6.13371277 C-6.92637634 3.63371277 -6.92637634 3.63371277 -6.80137634 1.13371277 C-5.0207277 -0.64693587 -2.40817238 0.00366008 0 0 Z " fill="#6B5F8E" transform="translate(50.80137634277344,194.8662872314453)"/>
<path d="M0 0 C1.09369904 -0.00563965 2.18739807 -0.0112793 3.3142395 -0.01708984 C4.51950287 -0.01304138 5.72476624 -0.00899292 6.96655273 -0.00482178 C8.23159637 -0.00832642 9.49664001 -0.01183105 10.80001831 -0.01544189 C14.27516872 -0.02457849 17.7502007 -0.02101647 21.22535324 -0.01468372 C24.85727006 -0.00963027 28.48917655 -0.01431335 32.12109375 -0.01745605 C38.22096584 -0.02109762 44.32078955 -0.01629164 50.4206543 -0.0067749 C57.47912632 0.00411004 64.53748281 0.00058459 71.59595203 -0.01042771 C77.64948677 -0.01949519 83.70298666 -0.02078852 89.75652599 -0.01555037 C93.37498558 -0.01242769 96.99339081 -0.01202946 100.61184692 -0.01862335 C104.64421463 -0.02545785 108.67638226 -0.0159929 112.70874023 -0.00482178 C114.51663528 -0.01089447 114.51663528 -0.01089447 116.36105347 -0.01708984 C118.00160202 -0.00863037 118.00160202 -0.00863037 119.67529297 0 C121.10662819 0.00113108 121.10662819 0.00113108 122.56687927 0.002285 C124.83764648 0.25396729 124.83764648 0.25396729 126.83764648 2.25396729 C126.50764648 3.57396729 126.17764648 4.89396729 125.83764648 6.25396729 C82.27764648 6.25396729 38.71764648 6.25396729 -6.16235352 6.25396729 C-6.49235352 4.93396729 -6.82235352 3.61396729 -7.16235352 2.25396729 C-4.58224643 -0.3261398 -3.58755171 0.00283497 0 0 Z " fill="#635688" transform="translate(60.162353515625,176.74603271484375)"/>
<path d="M0 0 C1.98 0 3.96 0 6 0 C6 26.07 6 52.14 6 79 C4.02 79 2.04 79 0 79 C0 52.93 0 26.86 0 0 Z " fill="#FEFEFE" transform="translate(157,80)"/>
<path d="M0 0 C1.98 0 3.96 0 6 0 C6 26.07 6 52.14 6 79 C4.02 79 2.04 79 0 79 C0 52.93 0 26.86 0 0 Z " fill="#FEFEFE" transform="translate(117,80)"/>
<path d="M0 0 C1.98 0 3.96 0 6 0 C6 26.07 6 52.14 6 79 C4.02 79 2.04 79 0 79 C0 52.93 0 26.86 0 0 Z " fill="#FEFEFE" transform="translate(77,80)"/>
</svg>
